<svg xmlns="http://www.w3.org/2000/svg" xmlns:xlink="http://www.w3.org/1999/xlink" width="312" zoomAndPan="magnify" viewBox="0 0 234 31.5" height="42" preserveAspectRatio="xMidYMid meet" version="1.0"><defs><g/><clipPath id="6828ba8349"><path d="M 3 4 L 232.171875 4 L 232.171875 27 L 3 27 Z M 3 4 " clip-rule="nonzero"/></clipPath><clipPath id="84491c9cc5"><path d="M 0.0078125 1 L 16 1 L 16 18 L 0.0078125 18 Z M 0.0078125 1 " clip-rule="nonzero"/></clipPath><clipPath id="93f103f03d"><rect x="0" width="230" y="0" height="23"/></clipPath></defs><g clip-path="url(#6828ba8349)"><g transform="matrix(1, 0, 0, 1, 3, 4)"><g clip-path="url(#93f103f03d)"><g clip-path="url(#84491c9cc5)"><g fill="#000000" fill-opacity="1"><g transform="translate(0.166047, 17.646066)"><g><path d="M 14.875 -16.171875 C 14.9375 -16.171875 14.984375 -16.140625 15.015625 -16.078125 C 15.054688 -16.023438 15.070312 -15.96875 15.0625 -15.90625 L 9.734375 -0.140625 C 9.703125 -0.0546875 9.640625 -0.015625 9.546875 -0.015625 L 5.75 -0.015625 C 5.65625 -0.015625 5.59375 -0.0546875 5.5625 -0.140625 L 0.234375 -15.90625 C 0.210938 -15.96875 0.222656 -16.023438 0.265625 -16.078125 C 0.304688 -16.140625 0.359375 -16.171875 0.421875 -16.171875 L 4.859375 -16.171875 C 4.972656 -16.171875 5.035156 -16.125 5.046875 -16.03125 L 7.46875 -6.796875 C 7.488281 -6.691406 7.546875 -6.640625 7.640625 -6.640625 C 7.742188 -6.640625 7.8125 -6.691406 7.84375 -6.796875 L 10.234375 -16.03125 C 10.265625 -16.125 10.328125 -16.171875 10.421875 -16.171875 Z M 14.875 -16.171875 "/></g></g></g></g><g fill="#000000" fill-opacity="1"><g transform="translate(17.603507, 17.646066)"><g><path d="M 4.59375 -16.09375 C 4.726562 -16.09375 4.796875 -16.03125 4.796875 -15.90625 L 4.796875 -0.203125 C 4.796875 -0.0664062 4.726562 0 4.59375 0 L 0.90625 0 C 0.757812 0 0.6875 -0.0664062 0.6875 -0.203125 L 0.6875 -15.90625 C 0.6875 -16.03125 0.757812 -16.09375 0.90625 -16.09375 Z M 4.59375 -16.09375 "/></g></g></g><g fill="#000000" fill-opacity="1"><g transform="translate(25.791896, 17.646066)"><g><path d="M 13.796875 -16.140625 C 13.910156 -16.140625 13.96875 -16.070312 13.96875 -15.9375 L 13.96875 -0.234375 C 13.96875 -0.109375 13.910156 -0.046875 13.796875 -0.046875 L 10.515625 -0.046875 C 10.453125 -0.046875 10.398438 -0.0664062 10.359375 -0.109375 L 4.890625 -7.765625 C 4.835938 -7.847656 4.765625 -7.875 4.671875 -7.84375 C 4.585938 -7.8125 4.546875 -7.75 4.546875 -7.65625 L 4.609375 -0.234375 C 4.609375 -0.109375 4.546875 -0.046875 4.421875 -0.046875 L 0.875 -0.046875 C 0.75 -0.046875 0.6875 -0.109375 0.6875 -0.234375 L 0.6875 -15.9375 C 0.6875 -16.070312 0.75 -16.140625 0.875 -16.140625 L 4.125 -16.140625 C 4.1875 -16.140625 4.242188 -16.109375 4.296875 -16.046875 L 9.75 -7.8125 C 9.8125 -7.726562 9.890625 -7.695312 9.984375 -7.71875 C 10.078125 -7.75 10.125 -7.8125 10.125 -7.90625 L 10.0625 -15.9375 C 10.039062 -16.070312 10.097656 -16.140625 10.234375 -16.140625 Z M 13.796875 -16.140625 "/></g></g></g><g fill="#000000" fill-opacity="1"><g transform="translate(42.814187, 17.646066)"><g><path d="M 15.796875 -0.234375 C 15.816406 -0.171875 15.804688 -0.113281 15.765625 -0.0625 C 15.722656 -0.0078125 15.671875 0.015625 15.609375 0.015625 L 11.625 0.015625 C 11.519531 0.015625 11.441406 -0.0351562 11.390625 -0.140625 L 10.5625 -2.671875 C 10.53125 -2.765625 10.46875 -2.8125 10.375 -2.8125 L 5.4375 -2.8125 C 5.34375 -2.8125 5.285156 -2.765625 5.265625 -2.671875 L 4.40625 -0.109375 C 4.375 -0.0234375 4.3125 0.015625 4.21875 0.015625 L 0.203125 0.015625 C 0.128906 0.015625 0.0703125 -0.0078125 0.03125 -0.0625 C 0 -0.113281 -0.00390625 -0.171875 0.015625 -0.234375 L 5.921875 -15.953125 C 5.972656 -16.066406 6.050781 -16.125 6.15625 -16.125 L 9.65625 -16.125 C 9.769531 -16.125 9.84375 -16.066406 9.875 -15.953125 Z M 9.15625 -6.109375 C 9.21875 -6.109375 9.265625 -6.140625 9.296875 -6.203125 C 9.335938 -6.265625 9.351562 -6.328125 9.34375 -6.390625 L 8.09375 -10.140625 C 8.0625 -10.234375 7.992188 -10.28125 7.890625 -10.28125 C 7.796875 -10.28125 7.734375 -10.234375 7.703125 -10.140625 L 6.453125 -6.390625 C 6.441406 -6.304688 6.453125 -6.238281 6.484375 -6.1875 C 6.523438 -6.132812 6.585938 -6.109375 6.671875 -6.109375 Z M 9.15625 -6.109375 "/></g></g></g><g fill="#000000" fill-opacity="1"><g transform="translate(56.95321, 17.646066)"><g><path d="M 13.703125 -16.140625 C 13.773438 -16.140625 13.832031 -16.109375 13.875 -16.046875 C 13.914062 -15.984375 13.921875 -15.921875 13.890625 -15.859375 L 9.390625 -6.53125 C 9.367188 -6.5 9.359375 -6.472656 9.359375 -6.453125 L 9.359375 -0.234375 C 9.359375 -0.0859375 9.296875 -0.015625 9.171875 -0.015625 L 5.46875 -0.015625 C 5.332031 -0.015625 5.265625 -0.0859375 5.265625 -0.234375 L 5.265625 -6.453125 C 5.265625 -6.472656 5.265625 -6.5 5.265625 -6.53125 L 0.71875 -15.859375 C 0.6875 -15.921875 0.6875 -15.984375 0.71875 -16.046875 C 0.757812 -16.109375 0.8125 -16.140625 0.875 -16.140625 L 4.90625 -16.140625 C 4.988281 -16.140625 5.046875 -16.101562 5.078125 -16.03125 L 7.125 -11.15625 C 7.15625 -11.082031 7.210938 -11.039062 7.296875 -11.03125 C 7.378906 -11.03125 7.445312 -11.070312 7.5 -11.15625 L 9.546875 -16.03125 C 9.585938 -16.101562 9.648438 -16.140625 9.734375 -16.140625 Z M 13.703125 -16.140625 "/></g></g></g><g fill="#000000" fill-opacity="1"><g transform="translate(69.869788, 17.646066)"><g><path d="M 15.796875 -0.234375 C 15.816406 -0.171875 15.804688 -0.113281 15.765625 -0.0625 C 15.722656 -0.0078125 15.671875 0.015625 15.609375 0.015625 L 11.625 0.015625 C 11.519531 0.015625 11.441406 -0.0351562 11.390625 -0.140625 L 10.5625 -2.671875 C 10.53125 -2.765625 10.46875 -2.8125 10.375 -2.8125 L 5.4375 -2.8125 C 5.34375 -2.8125 5.285156 -2.765625 5.265625 -2.671875 L 4.40625 -0.109375 C 4.375 -0.0234375 4.3125 0.015625 4.21875 0.015625 L 0.203125 0.015625 C 0.128906 0.015625 0.0703125 -0.0078125 0.03125 -0.0625 C 0 -0.113281 -0.00390625 -0.171875 0.015625 -0.234375 L 5.921875 -15.953125 C 5.972656 -16.066406 6.050781 -16.125 6.15625 -16.125 L 9.65625 -16.125 C 9.769531 -16.125 9.84375 -16.066406 9.875 -15.953125 Z M 9.15625 -6.109375 C 9.21875 -6.109375 9.265625 -6.140625 9.296875 -6.203125 C 9.335938 -6.265625 9.351562 -6.328125 9.34375 -6.390625 L 8.09375 -10.140625 C 8.0625 -10.234375 7.992188 -10.28125 7.890625 -10.28125 C 7.796875 -10.28125 7.734375 -10.234375 7.703125 -10.140625 L 6.453125 -6.390625 C 6.441406 -6.304688 6.453125 -6.238281 6.484375 -6.1875 C 6.523438 -6.132812 6.585938 -6.109375 6.671875 -6.109375 Z M 9.15625 -6.109375 "/></g></g></g><g fill="#000000" fill-opacity="1"><g transform="translate(87.930005, 17.646066)"><g><path d="M 13.8125 -0.296875 C 13.863281 -0.234375 13.867188 -0.164062 13.828125 -0.09375 C 13.785156 -0.03125 13.726562 0 13.65625 0 L 9.125 0 C 9.050781 0 8.992188 -0.03125 8.953125 -0.09375 L 5.171875 -6.390625 C 5.117188 -6.460938 5.039062 -6.488281 4.9375 -6.46875 C 4.84375 -6.445312 4.796875 -6.378906 4.796875 -6.265625 L 4.796875 -0.203125 C 4.796875 -0.0664062 4.726562 0 4.59375 0 L 0.90625 0 C 0.757812 0 0.6875 -0.0664062 0.6875 -0.203125 L 0.6875 -15.90625 C 0.6875 -16.03125 0.757812 -16.09375 0.90625 -16.09375 L 4.59375 -16.09375 C 4.726562 -16.09375 4.796875 -16.03125 4.796875 -15.90625 L 4.796875 -9.96875 C 4.796875 -9.851562 4.84375 -9.785156 4.9375 -9.765625 C 5.03125 -9.742188 5.109375 -9.769531 5.171875 -9.84375 L 9.109375 -16 C 9.140625 -16.0625 9.191406 -16.09375 9.265625 -16.09375 L 13.09375 -16.09375 C 13.175781 -16.09375 13.234375 -16.054688 13.265625 -15.984375 C 13.304688 -15.921875 13.304688 -15.859375 13.265625 -15.796875 L 8.375 -8.421875 C 8.3125 -8.335938 8.3125 -8.257812 8.375 -8.1875 Z M 13.8125 -0.296875 "/></g></g></g><g fill="#000000" fill-opacity="1"><g transform="translate(104.260329, 17.646066)"><g><path d="M 15.796875 -0.234375 C 15.816406 -0.171875 15.804688 -0.113281 15.765625 -0.0625 C 15.722656 -0.0078125 15.671875 0.015625 15.609375 0.015625 L 11.625 0.015625 C 11.519531 0.015625 11.441406 -0.0351562 11.390625 -0.140625 L 10.5625 -2.671875 C 10.53125 -2.765625 10.46875 -2.8125 10.375 -2.8125 L 5.4375 -2.8125 C 5.34375 -2.8125 5.285156 -2.765625 5.265625 -2.671875 L 4.40625 -0.109375 C 4.375 -0.0234375 4.3125 0.015625 4.21875 0.015625 L 0.203125 0.015625 C 0.128906 0.015625 0.0703125 -0.0078125 0.03125 -0.0625 C 0 -0.113281 -0.00390625 -0.171875 0.015625 -0.234375 L 5.921875 -15.953125 C 5.972656 -16.066406 6.050781 -16.125 6.15625 -16.125 L 9.65625 -16.125 C 9.769531 -16.125 9.84375 -16.066406 9.875 -15.953125 Z M 9.15625 -6.109375 C 9.21875 -6.109375 9.265625 -6.140625 9.296875 -6.203125 C 9.335938 -6.265625 9.351562 -6.328125 9.34375 -6.390625 L 8.09375 -10.140625 C 8.0625 -10.234375 7.992188 -10.28125 7.890625 -10.28125 C 7.796875 -10.28125 7.734375 -10.234375 7.703125 -10.140625 L 6.453125 -6.390625 C 6.441406 -6.304688 6.453125 -6.238281 6.484375 -6.1875 C 6.523438 -6.132812 6.585938 -6.109375 6.671875 -6.109375 Z M 9.15625 -6.109375 "/></g></g></g><g fill="#000000" fill-opacity="1"><g transform="translate(122.781864, 17.646066)"><g/></g></g><g fill="#000000" fill-opacity="1"><g transform="translate(128.686818, 17.646066)"><g><path d="M 17.1875 -8.875 C 17.195312 -8.769531 17.207031 -8.632812 17.21875 -8.46875 C 17.238281 -8.3125 17.25 -8.171875 17.25 -8.046875 C 17.25 -7.210938 17.125 -6.398438 16.875 -5.609375 C 16.601562 -4.679688 16.191406 -3.828125 15.640625 -3.046875 C 14.867188 -1.972656 13.90625 -1.132812 12.75 -0.53125 C 11.570312 0.101562 10.3125 0.421875 8.96875 0.421875 C 7.832031 0.421875 6.765625 0.203125 5.765625 -0.234375 C 4.765625 -0.679688 3.882812 -1.289062 3.125 -2.0625 C 2.363281 -2.84375 1.765625 -3.742188 1.328125 -4.765625 C 0.898438 -5.785156 0.6875 -6.878906 0.6875 -8.046875 C 0.6875 -9.210938 0.898438 -10.304688 1.328125 -11.328125 C 1.765625 -12.359375 2.363281 -13.257812 3.125 -14.03125 C 3.882812 -14.8125 4.765625 -15.421875 5.765625 -15.859375 C 6.765625 -16.296875 7.832031 -16.515625 8.96875 -16.515625 C 10.3125 -16.515625 11.570312 -16.207031 12.75 -15.59375 C 13.75 -15.050781 14.613281 -14.335938 15.34375 -13.453125 C 15.457031 -13.296875 15.441406 -13.160156 15.296875 -13.046875 L 12.640625 -11.0625 C 12.546875 -10.988281 12.460938 -11 12.390625 -11.09375 C 11.953125 -11.601562 11.429688 -11.992188 10.828125 -12.265625 C 10.234375 -12.546875 9.613281 -12.6875 8.96875 -12.6875 C 8.132812 -12.6875 7.375 -12.476562 6.6875 -12.0625 C 6.007812 -11.644531 5.460938 -11.085938 5.046875 -10.390625 C 4.628906 -9.691406 4.421875 -8.910156 4.421875 -8.046875 C 4.421875 -7.203125 4.628906 -6.429688 5.046875 -5.734375 C 5.460938 -5.035156 6.007812 -4.476562 6.6875 -4.0625 C 7.375 -3.644531 8.132812 -3.4375 8.96875 -3.4375 C 9.675781 -3.4375 10.34375 -3.59375 10.96875 -3.90625 C 11.601562 -4.21875 12.132812 -4.671875 12.5625 -5.265625 C 12.613281 -5.316406 12.625 -5.378906 12.59375 -5.453125 C 12.5625 -5.535156 12.5 -5.578125 12.40625 -5.578125 L 8.5625 -5.578125 C 8.414062 -5.578125 8.34375 -5.644531 8.34375 -5.78125 L 8.34375 -8.875 C 8.34375 -9 8.414062 -9.0625 8.5625 -9.0625 L 16.96875 -9.0625 C 17.113281 -9.0625 17.1875 -9 17.1875 -8.875 Z M 17.1875 -8.875 "/></g></g></g><g fill="#000000" fill-opacity="1"><g transform="translate(148.892086, 17.646066)"><g><path d="M 9.984375 -5.609375 L 12.296875 -0.28125 C 12.328125 -0.21875 12.320312 -0.15625 12.28125 -0.09375 C 12.238281 -0.03125 12.1875 0 12.125 0 L 8.09375 0 C 8 0 7.9375 -0.0351562 7.90625 -0.109375 L 5.8125 -4.953125 C 5.78125 -5.035156 5.71875 -5.078125 5.625 -5.078125 L 4.984375 -5.078125 C 4.859375 -5.078125 4.796875 -5.003906 4.796875 -4.859375 L 4.796875 -0.25 C 4.796875 -0.125 4.726562 -0.0625 4.59375 -0.0625 L 0.875 -0.0625 C 0.75 -0.0625 0.6875 -0.125 0.6875 -0.25 L 0.6875 -15.953125 C 0.6875 -16.097656 0.75 -16.171875 0.875 -16.171875 L 5.859375 -16.171875 C 6.804688 -16.171875 7.582031 -16.117188 8.1875 -16.015625 C 8.800781 -15.910156 9.300781 -15.773438 9.6875 -15.609375 C 10.070312 -15.441406 10.410156 -15.234375 10.703125 -14.984375 C 11.285156 -14.484375 11.738281 -13.859375 12.0625 -13.109375 C 12.394531 -12.367188 12.5625 -11.566406 12.5625 -10.703125 C 12.5625 -9.867188 12.40625 -9.0625 12.09375 -8.28125 C 11.789062 -7.507812 11.390625 -6.898438 10.890625 -6.453125 C 10.597656 -6.210938 10.320312 -6.015625 10.0625 -5.859375 C 9.96875 -5.796875 9.941406 -5.710938 9.984375 -5.609375 Z M 7.703125 -9.015625 C 8.085938 -9.179688 8.335938 -9.421875 8.453125 -9.734375 C 8.566406 -10.054688 8.625 -10.351562 8.625 -10.625 C 8.625 -11.414062 8.3125 -11.945312 7.6875 -12.21875 C 7.40625 -12.34375 7.113281 -12.410156 6.8125 -12.421875 C 6.507812 -12.441406 6.253906 -12.453125 6.046875 -12.453125 L 4.984375 -12.453125 C 4.859375 -12.453125 4.796875 -12.390625 4.796875 -12.265625 L 4.796875 -8.96875 C 4.796875 -8.84375 4.859375 -8.78125 4.984375 -8.78125 L 6.203125 -8.78125 C 6.390625 -8.78125 6.625 -8.785156 6.90625 -8.796875 C 7.1875 -8.816406 7.453125 -8.890625 7.703125 -9.015625 Z M 7.703125 -9.015625 "/></g></g></g><g fill="#000000" fill-opacity="1"><g transform="translate(164.138366, 17.646066)"><g><path d="M 8.5625 -16.5625 C 9.695312 -16.5625 10.765625 -16.34375 11.765625 -15.90625 C 12.765625 -15.46875 13.644531 -14.859375 14.40625 -14.078125 C 15.164062 -13.304688 15.757812 -12.40625 16.1875 -11.375 C 16.613281 -10.351562 16.828125 -9.257812 16.828125 -8.09375 C 16.828125 -6.925781 16.613281 -5.832031 16.1875 -4.8125 C 15.757812 -3.789062 15.164062 -2.890625 14.40625 -2.109375 C 13.644531 -1.335938 12.765625 -0.726562 11.765625 -0.28125 C 10.765625 0.15625 9.695312 0.375 8.5625 0.375 C 7.414062 0.375 6.34375 0.15625 5.34375 -0.28125 C 4.34375 -0.726562 3.460938 -1.335938 2.703125 -2.109375 C 1.941406 -2.890625 1.347656 -3.789062 0.921875 -4.8125 C 0.492188 -5.832031 0.28125 -6.925781 0.28125 -8.09375 C 0.28125 -9.257812 0.492188 -10.351562 0.921875 -11.375 C 1.347656 -12.40625 1.941406 -13.304688 2.703125 -14.078125 C 3.460938 -14.859375 4.34375 -15.46875 5.34375 -15.90625 C 6.34375 -16.34375 7.414062 -16.5625 8.5625 -16.5625 Z M 8.5625 -3.484375 C 9.382812 -3.484375 10.140625 -3.691406 10.828125 -4.109375 C 11.515625 -4.523438 12.0625 -5.082031 12.46875 -5.78125 C 12.875 -6.476562 13.078125 -7.25 13.078125 -8.09375 C 13.078125 -8.9375 12.875 -9.710938 12.46875 -10.421875 C 12.0625 -11.128906 11.515625 -11.691406 10.828125 -12.109375 C 10.140625 -12.523438 9.382812 -12.734375 8.5625 -12.734375 C 7.726562 -12.734375 6.96875 -12.523438 6.28125 -12.109375 C 5.601562 -11.691406 5.054688 -11.128906 4.640625 -10.421875 C 4.222656 -9.710938 4.015625 -8.9375 4.015625 -8.09375 C 4.015625 -7.25 4.222656 -6.476562 4.640625 -5.78125 C 5.054688 -5.082031 5.601562 -4.523438 6.28125 -4.109375 C 6.96875 -3.691406 7.726562 -3.484375 8.5625 -3.484375 Z M 8.5625 -3.484375 "/></g></g></g><g fill="#000000" fill-opacity="1"><g transform="translate(183.951539, 17.646066)"><g><path d="M 12.59375 -16.125 C 12.726562 -16.125 12.796875 -16.050781 12.796875 -15.90625 L 12.796875 -6.4375 C 12.796875 -5.507812 12.726562 -4.742188 12.59375 -4.140625 C 12.46875 -3.535156 12.28125 -3.023438 12.03125 -2.609375 C 11.789062 -2.191406 11.5 -1.804688 11.15625 -1.453125 C 10.59375 -0.867188 9.957031 -0.429688 9.25 -0.140625 C 8.550781 0.148438 7.734375 0.296875 6.796875 0.296875 C 6.492188 0.296875 6.082031 0.257812 5.5625 0.1875 C 5.050781 0.125 4.503906 -0.0234375 3.921875 -0.265625 C 3.335938 -0.515625 2.804688 -0.910156 2.328125 -1.453125 C 1.847656 -1.960938 1.492188 -2.453125 1.265625 -2.921875 C 1.035156 -3.398438 0.878906 -3.921875 0.796875 -4.484375 C 0.722656 -5.046875 0.6875 -5.695312 0.6875 -6.4375 L 0.6875 -15.90625 C 0.6875 -16.050781 0.75 -16.125 0.875 -16.125 L 4.59375 -16.125 C 4.726562 -16.125 4.796875 -16.050781 4.796875 -15.90625 L 4.796875 -6.4375 C 4.796875 -6.144531 4.8125 -5.835938 4.84375 -5.515625 C 4.875 -5.203125 4.941406 -4.910156 5.046875 -4.640625 C 5.191406 -4.328125 5.421875 -4.085938 5.734375 -3.921875 C 6.046875 -3.765625 6.382812 -3.6875 6.75 -3.6875 C 7.132812 -3.6875 7.484375 -3.757812 7.796875 -3.90625 C 8.117188 -4.050781 8.34375 -4.269531 8.46875 -4.5625 C 8.570312 -4.820312 8.632812 -5.125 8.65625 -5.46875 C 8.675781 -5.820312 8.6875 -6.144531 8.6875 -6.4375 L 8.6875 -15.90625 C 8.6875 -16.050781 8.75 -16.125 8.875 -16.125 Z M 12.59375 -16.125 "/></g></g></g><g fill="#000000" fill-opacity="1"><g transform="translate(200.120442, 17.646066)"><g><path d="M 10.703125 -14.96875 C 11.285156 -14.457031 11.738281 -13.828125 12.0625 -13.078125 C 12.394531 -12.335938 12.5625 -11.535156 12.5625 -10.671875 C 12.5625 -9.847656 12.40625 -9.046875 12.09375 -8.265625 C 11.789062 -7.492188 11.390625 -6.882812 10.890625 -6.4375 C 10.546875 -6.144531 10.175781 -5.894531 9.78125 -5.6875 C 9.394531 -5.476562 8.925781 -5.316406 8.375 -5.203125 C 7.820312 -5.097656 7.128906 -5.046875 6.296875 -5.046875 L 4.984375 -5.046875 C 4.859375 -5.046875 4.796875 -4.976562 4.796875 -4.84375 L 4.796875 -0.234375 C 4.796875 -0.109375 4.726562 -0.046875 4.59375 -0.046875 L 0.875 -0.046875 C 0.75 -0.046875 0.6875 -0.109375 0.6875 -0.234375 L 0.6875 -15.9375 C 0.6875 -16.070312 0.75 -16.140625 0.875 -16.140625 L 5.859375 -16.140625 C 6.804688 -16.140625 7.582031 -16.085938 8.1875 -15.984375 C 8.800781 -15.890625 9.300781 -15.753906 9.6875 -15.578125 C 10.070312 -15.398438 10.410156 -15.195312 10.703125 -14.96875 Z M 7.703125 -9 C 8.085938 -9.164062 8.335938 -9.40625 8.453125 -9.71875 C 8.566406 -10.03125 8.625 -10.328125 8.625 -10.609375 C 8.625 -11.390625 8.3125 -11.921875 7.6875 -12.203125 C 7.40625 -12.328125 7.113281 -12.394531 6.8125 -12.40625 C 6.507812 -12.425781 6.253906 -12.4375 6.046875 -12.4375 L 4.984375 -12.4375 C 4.859375 -12.4375 4.796875 -12.375 4.796875 -12.25 L 4.796875 -8.953125 C 4.796875 -8.828125 4.859375 -8.765625 4.984375 -8.765625 L 6.203125 -8.765625 C 6.390625 -8.765625 6.625 -8.769531 6.90625 -8.78125 C 7.1875 -8.800781 7.453125 -8.875 7.703125 -9 Z M 7.703125 -9 "/></g></g></g><g fill="#000000" fill-opacity="1"><g transform="translate(215.366709, 17.646066)"><g><path d="M 8.046875 -9.546875 C 9.390625 -8.929688 10.335938 -8.269531 10.890625 -7.5625 C 11.453125 -6.851562 11.734375 -5.96875 11.734375 -4.90625 C 11.734375 -4.550781 11.679688 -4.070312 11.578125 -3.46875 C 11.484375 -2.875 11.242188 -2.296875 10.859375 -1.734375 C 9.953125 -0.390625 8.414062 0.28125 6.25 0.28125 C 4.445312 0.28125 3.054688 -0.179688 2.078125 -1.109375 C 1.859375 -1.328125 1.609375 -1.640625 1.328125 -2.046875 C 1.054688 -2.453125 0.84375 -2.976562 0.6875 -3.625 C 0.65625 -3.75 0.710938 -3.820312 0.859375 -3.84375 L 4.515625 -4.609375 C 4.640625 -4.628906 4.71875 -4.582031 4.75 -4.46875 C 4.851562 -4.082031 5.007812 -3.804688 5.21875 -3.640625 C 5.425781 -3.472656 5.625 -3.367188 5.8125 -3.328125 C 6 -3.296875 6.128906 -3.28125 6.203125 -3.28125 C 6.648438 -3.28125 7.003906 -3.429688 7.265625 -3.734375 C 7.523438 -4.046875 7.65625 -4.378906 7.65625 -4.734375 C 7.65625 -4.992188 7.570312 -5.210938 7.40625 -5.390625 C 7.25 -5.578125 6.96875 -5.765625 6.5625 -5.953125 C 6.15625 -6.148438 5.570312 -6.410156 4.8125 -6.734375 L 4.640625 -6.828125 C 4.378906 -6.929688 4.03125 -7.09375 3.59375 -7.3125 C 3.164062 -7.53125 2.734375 -7.8125 2.296875 -8.15625 C 1.867188 -8.507812 1.507812 -8.957031 1.21875 -9.5 C 0.925781 -10.039062 0.78125 -10.695312 0.78125 -11.46875 C 0.78125 -12.257812 0.9375 -12.96875 1.25 -13.59375 C 1.570312 -14.21875 2 -14.738281 2.53125 -15.15625 C 3.070312 -15.582031 3.664062 -15.898438 4.3125 -16.109375 C 4.96875 -16.328125 5.628906 -16.4375 6.296875 -16.4375 C 6.554688 -16.4375 6.90625 -16.410156 7.34375 -16.359375 C 7.78125 -16.304688 8.238281 -16.179688 8.71875 -15.984375 C 8.945312 -15.878906 9.234375 -15.710938 9.578125 -15.484375 C 9.921875 -15.265625 10.242188 -14.960938 10.546875 -14.578125 C 10.847656 -14.191406 11.046875 -13.710938 11.140625 -13.140625 C 11.148438 -13.035156 11.101562 -12.96875 11 -12.9375 L 7.59375 -12.078125 C 7.476562 -12.046875 7.398438 -12.078125 7.359375 -12.171875 C 7.273438 -12.378906 7.144531 -12.554688 6.96875 -12.703125 C 6.800781 -12.847656 6.539062 -12.921875 6.1875 -12.921875 C 5.863281 -12.921875 5.5625 -12.8125 5.28125 -12.59375 C 5 -12.375 4.859375 -12.082031 4.859375 -11.71875 C 4.859375 -11.488281 4.929688 -11.289062 5.078125 -11.125 C 5.222656 -10.96875 5.523438 -10.769531 5.984375 -10.53125 C 6.441406 -10.300781 7.128906 -9.972656 8.046875 -9.546875 Z M 8.046875 -9.546875 "/></g></g></g></g></g></g></svg>